<?xml version="1.0" standalone="no"?>
<!DOCTYPE svg PUBLIC "-//W3C//DTD SVG 20010904//EN"
 "http://www.w3.org/TR/2001/REC-SVG-20010904/DTD/svg10.dtd">
<svg version="1.0" xmlns="http://www.w3.org/2000/svg"
 width="512.000000pt" height="512.000000pt" viewBox="0 0 512.000000 512.000000"
 preserveAspectRatio="xMidYMid meet">

<g transform="translate(0.000000,512.000000) scale(0.100000,-0.100000)"
fill="#000000" stroke="none">
<path d="M170 4473 l0 -477 120 -121 120 -122 0 -336 0 -337 253 0 252 0 95
-95 95 -95 142 0 143 0 0 80 0 80 -85 0 c-72 0 -88 3 -105 20 -25 25 -25 55 0
80 17 17 33 20 105 20 l85 0 0 74 0 74 -84 3 c-91 4 -126 22 -126 64 0 42 29
55 123 55 l87 0 0 125 c0 168 -3 165 165 165 l125 0 0 88 c0 95 12 122 57 122
40 0 53 -30 53 -123 l0 -87 80 0 80 0 0 85 c0 72 3 88 20 105 11 11 29 20 40
20 11 0 29 -9 40 -20 17 -17 20 -33 20 -105 l0 -85 80 0 80 0 0 88 c0 95 12
122 57 122 40 0 53 -30 53 -123 l0 -87 80 0 80 0 0 85 c0 72 3 88 20 105 11
11 29 20 40 20 11 0 29 -9 40 -20 17 -17 20 -33 20 -105 l0 -85 80 0 80 0 0
88 c0 95 12 122 57 122 40 0 53 -30 53 -123 l0 -87 80 0 80 0 0 85 c0 72 3 88
20 105 11 11 29 20 40 20 11 0 29 -9 40 -20 17 -17 20 -33 20 -105 l0 -85 80
0 80 0 0 88 c0 95 12 122 57 122 40 0 53 -30 53 -123 l0 -87 125 0 c168 0 165
3 165 -165 l0 -125 88 0 c95 0 122 -12 122 -57 0 -40 -36 -58 -126 -62 l-84
-3 0 -74 0 -74 85 0 c72 0 88 -3 105 -20 25 -25 25 -55 0 -80 -17 -17 -33 -20
-105 -20 l-85 0 0 -80 0 -80 143 0 142 0 95 95 95 95 252 0 253 0 0 337 0 336
120 122 120 121 0 477 0 477 -439 0 -438 0 -6 -34 c-17 -107 -116 -230 -229
-285 -119 -59 -278 -53 -393 14 -90 52 -184 179 -201 271 l-6 34 -678 0 -678
0 -12 -48 c-22 -96 -105 -205 -195 -257 -114 -67 -274 -73 -391 -15 -114 56
-214 180 -231 286 l-6 34 -438 0 -439 0 0 -477z m672 250 c65 -30 133 -95 165
-162 24 -49 28 -68 28 -146 0 -71 -5 -100 -22 -137 -30 -66 -96 -133 -162
-165 -49 -24 -68 -28 -146 -28 -78 0 -97 4 -146 28 -265 130 -244 520 33 619
69 24 183 20 250 -9z m3710 0 c65 -30 133 -95 165 -162 24 -49 28 -68 28 -146
0 -71 -5 -100 -22 -137 -30 -66 -96 -133 -162 -165 -49 -24 -68 -28 -146 -28
-80 0 -97 3 -148 29 -224 114 -252 410 -55 569 85 68 236 86 340 40z"/>
<path d="M620 4614 c-52 -23 -120 -95 -120 -129 0 -3 92 -5 205 -5 113 0 205
2 205 5 0 15 -31 63 -57 87 -59 56 -159 74 -233 42z"/>
<path d="M500 4346 c0 -24 44 -80 87 -110 49 -34 129 -45 188 -26 60 20 135
97 135 140 0 6 -69 10 -205 10 -166 0 -205 -3 -205 -14z"/>
<path d="M4330 4614 c-52 -23 -120 -95 -120 -129 0 -3 92 -5 205 -5 113 0 205
2 205 5 0 15 -31 63 -57 87 -59 56 -159 74 -233 42z"/>
<path d="M4210 4346 c0 -24 44 -80 87 -110 49 -34 129 -45 188 -26 60 20 135
97 135 140 0 6 -69 10 -205 10 -166 0 -205 -3 -205 -14z"/>
<path d="M1510 2560 l0 -1050 1050 0 1050 0 0 1050 0 1050 -1050 0 -1050 0 0
-1050z m1852 853 c16 -14 18 -34 18 -195 0 -165 -1 -179 -20 -198 -19 -19 -33
-20 -290 -20 -257 0 -271 1 -290 20 -18 18 -20 33 -20 197 0 150 2 179 17 195
15 17 37 18 291 18 242 0 278 -2 294 -17z m-952 -1623 c24 -24 26 -57 3 -82
-15 -17 -38 -18 -326 -18 -275 0 -313 2 -329 17 -24 21 -23 58 2 83 19 19 33
20 325 20 292 0 306 -1 325 -20z"/>
<path d="M2880 3215 l0 -95 190 0 190 0 0 95 0 95 -190 0 -190 0 0 -95z"/>
<path d="M410 2560 l0 -400 228 0 227 0 90 90 90 90 172 0 173 0 0 80 0 80
-147 0 -147 0 -97 -95 c-53 -52 -103 -95 -110 -95 -28 0 -59 31 -59 58 0 21
24 52 113 140 l112 112 168 0 167 0 0 74 0 75 -170 3 -170 3 -93 93 -92 92
-228 0 -227 0 0 -400z"/>
<path d="M4162 2868 l-92 -93 -170 -3 -170 -3 0 -75 0 -74 168 0 167 0 113
-113 c87 -87 112 -118 112 -139 0 -27 -31 -58 -59 -58 -7 0 -57 43 -110 95
l-97 95 -147 0 -147 0 0 -80 0 -80 173 0 172 0 90 -90 90 -90 227 0 228 0 0
400 0 400 -228 0 -227 0 -93 -92z"/>
<path d="M1005 2130 l-90 -90 -252 0 -253 0 0 -337 0 -336 -120 -122 -120
-121 0 -477 0 -477 439 0 438 0 6 37 c17 104 117 227 231 283 52 26 81 33 149
37 151 10 278 -48 367 -166 37 -48 80 -144 80 -176 0 -13 90 -15 679 -15 l679
0 6 34 c17 92 111 219 201 271 115 67 274 73 393 14 113 -55 212 -178 229
-285 l6 -34 438 0 439 0 0 477 0 477 -120 121 -120 122 0 336 0 337 -253 0
-252 0 -90 90 -90 90 -147 0 -148 0 0 -75 0 -75 85 0 c72 0 88 -3 105 -20 11
-11 20 -29 20 -40 0 -11 -9 -29 -20 -40 -17 -17 -33 -20 -105 -20 l-85 0 0
-80 0 -80 88 0 c95 0 122 -12 122 -57 0 -40 -36 -58 -126 -62 l-84 -3 0 -119
c0 -161 2 -159 -165 -159 l-125 0 0 -88 c0 -95 -12 -122 -57 -122 -40 0 -53
30 -53 123 l0 87 -80 0 -80 0 0 -85 c0 -72 -3 -88 -20 -105 -11 -11 -29 -20
-40 -20 -11 0 -29 9 -40 20 -17 17 -20 33 -20 105 l0 85 -80 0 -80 0 0 -88 c0
-95 -12 -122 -57 -122 -40 0 -53 30 -53 123 l0 87 -80 0 -80 0 0 -85 c0 -72
-3 -88 -20 -105 -25 -25 -55 -25 -80 0 -17 17 -20 33 -20 105 l0 85 -80 0 -80
0 0 -88 c0 -95 -12 -122 -57 -122 -40 0 -53 30 -53 123 l0 87 -80 0 -80 0 0
-85 c0 -72 -3 -88 -20 -105 -25 -25 -55 -25 -80 0 -17 17 -20 33 -20 105 l0
85 -80 0 -80 0 0 -88 c0 -95 -12 -122 -57 -122 -40 0 -53 30 -53 123 l0 87
-125 0 c-167 0 -165 -2 -165 159 l0 119 -84 3 c-91 4 -126 22 -126 64 0 42 29
55 123 55 l87 0 0 80 0 80 -85 0 c-72 0 -88 3 -105 20 -11 11 -20 29 -20 40 0
11 9 29 20 40 17 17 33 20 105 20 l85 0 0 75 0 75 -148 0 -147 0 -90 -90z
m-163 -1117 c65 -30 133 -95 165 -162 24 -49 28 -68 28 -146 0 -71 -5 -100
-22 -137 -30 -66 -96 -133 -162 -165 -49 -24 -68 -28 -146 -28 -78 0 -97 4
-146 28 -265 130 -244 520 33 619 69 24 183 20 250 -9z m3710 0 c65 -30 133
-95 165 -162 24 -49 28 -68 28 -146 0 -71 -5 -100 -22 -137 -30 -66 -96 -133
-162 -165 -49 -24 -68 -28 -146 -28 -78 0 -97 4 -146 28 -265 130 -244 520 33
619 69 24 183 20 250 -9z"/>
<path d="M625 906 c-59 -26 -125 -97 -125 -136 0 -6 69 -10 205 -10 136 0 205
4 205 10 0 20 -28 65 -57 92 -57 54 -159 74 -228 44z"/>
<path d="M500 635 c0 -15 31 -63 57 -87 100 -95 275 -68 339 54 8 15 14 29 14
33 0 3 -92 5 -205 5 -113 0 -205 -2 -205 -5z"/>
<path d="M4335 906 c-59 -26 -125 -97 -125 -136 0 -6 69 -10 205 -10 136 0
205 4 205 10 0 20 -28 65 -57 92 -57 54 -159 74 -228 44z"/>
<path d="M4210 635 c0 -15 31 -63 57 -87 81 -77 215 -77 296 0 26 24 57 72 57
87 0 3 -92 5 -205 5 -113 0 -205 -2 -205 -5z"/>
</g>
</svg>
