<?xml version="1.0" standalone="no"?>
<!DOCTYPE svg PUBLIC "-//W3C//DTD SVG 20010904//EN"
 "http://www.w3.org/TR/2001/REC-SVG-20010904/DTD/svg10.dtd">
<svg version="1.0" xmlns="http://www.w3.org/2000/svg"
 width="512.000000pt" height="512.000000pt" viewBox="0 0 512.000000 512.000000"
 preserveAspectRatio="xMidYMid meet">

<g transform="translate(0.000000,512.000000) scale(0.100000,-0.100000)"
fill="#000000" stroke="none">
<path d="M3819 5111 c-58 -4 -102 -11 -112 -20 -21 -16 -33 -64 -43 -156 -9
-96 -13 -103 -70 -129 l-51 -24 -94 59 c-113 70 -146 75 -191 27 -111 -119
-176 -196 -182 -215 -9 -28 2 -49 80 -150 l64 -81 -16 -39 c-9 -21 -17 -39
-19 -41 -1 -1 -84 33 -185 78 -100 44 -191 80 -201 80 -41 0 -69 -49 -204
-360 -76 -173 -143 -326 -151 -340 -11 -21 -13 67 -14 576 0 559 -1 602 -17
616 -10 9 -28 19 -40 22 -26 8 -78 -16 -87 -39 -3 -9 -6 -94 -6 -189 l0 -173
-77 -7 c-300 -27 -615 -154 -853 -344 -165 -132 -360 -365 -360 -430 0 -38 37
-72 78 -72 27 0 38 9 88 78 216 293 470 472 810 571 69 20 244 51 292 51 l22
0 0 -1600 0 -1600 -241 0 c-343 0 -339 -3 -339 242 0 117 -3 158 -14 174 -8
11 -50 41 -93 67 -338 200 -589 556 -673 955 -27 124 -36 347 -21 467 6 50 23
137 37 194 28 114 25 138 -23 160 -34 15 -47 14 -76 -9 -20 -16 -30 -42 -51
-128 -39 -167 -49 -269 -43 -447 11 -317 99 -587 278 -855 88 -132 291 -334
427 -424 l102 -68 0 -127 c0 -147 13 -197 66 -259 19 -22 54 -50 79 -62 l45
-22 0 -202 c0 -220 10 -283 56 -362 81 -138 228 -214 415 -214 l69 0 0 -144
c0 -122 3 -147 18 -165 26 -32 72 -37 105 -11 l27 21 0 920 c0 505 3 919 7
919 10 0 746 -322 757 -331 5 -4 5 -28 0 -54 -8 -42 -13 -49 -46 -62 l-37 -15
-76 53 c-109 75 -116 74 -231 -43 -115 -116 -116 -123 -43 -228 50 -70 51 -74
40 -110 -13 -44 -13 -44 -116 -61 -120 -19 -125 -26 -125 -187 0 -169 3 -173
134 -196 l94 -17 14 -38 15 -38 -53 -79 c-30 -43 -54 -89 -54 -103 0 -37 186
-221 223 -221 15 0 58 22 105 53 l78 54 34 -16 c19 -8 36 -16 38 -17 2 -1 10
-41 19 -90 24 -130 29 -134 191 -134 164 0 173 5 191 112 20 116 19 114 61
128 38 12 39 12 111 -39 106 -75 114 -73 232 48 60 61 97 106 97 119 0 11 -25
57 -55 101 l-55 80 15 39 16 39 85 13 c52 8 95 21 110 32 23 19 24 23 24 158
0 169 -3 174 -105 194 -66 13 -51 14 250 15 230 1 326 5 341 14 11 7 95 91
187 188 150 160 166 181 172 220 3 24 5 329 3 677 l-3 634 -28 24 -28 24 -444
0 -445 0 26 58 c14 31 48 110 76 175 l51 117 -42 106 c-23 59 -40 107 -39 108
2 1 28 13 59 28 l55 26 80 -50 c117 -74 138 -82 172 -64 25 13 195 195 215
231 15 27 1 58 -71 151 l-69 89 20 56 21 56 99 22 c121 27 142 36 155 66 14
30 0 301 -16 332 -15 27 -23 30 -156 47 -59 8 -109 16 -110 18 -1 1 -12 26
-25 54 l-23 50 61 97 c36 57 61 108 61 124 0 28 -34 64 -173 184 -47 42 -76
59 -95 59 -19 0 -57 -22 -120 -71 l-92 -71 -58 20 -57 19 -26 113 c-38 162
-27 157 -290 141z m160 -249 c12 -52 27 -103 34 -113 7 -11 36 -27 67 -36 30
-8 81 -26 113 -40 37 -15 67 -21 80 -17 12 4 58 35 103 69 l81 62 51 -44 51
-44 -54 -85 c-30 -46 -57 -94 -60 -107 -4 -15 9 -51 40 -110 25 -48 45 -94 45
-101 0 -30 40 -48 137 -62 54 -7 104 -14 111 -14 8 0 12 -20 12 -68 l0 -67
-102 -23 c-58 -13 -110 -30 -119 -40 -10 -9 -25 -44 -34 -77 -9 -33 -25 -76
-36 -97 -30 -59 -25 -80 46 -173 l66 -86 -20 -27 c-10 -15 -30 -38 -44 -51
l-26 -23 -89 56 c-49 31 -99 56 -111 56 -11 0 -52 -16 -90 -35 -37 -19 -73
-35 -78 -35 -8 0 -33 55 -68 151 -5 12 6 22 40 39 26 12 73 47 106 77 221 205
165 565 -109 700 -75 37 -78 38 -191 38 -109 0 -120 -2 -182 -31 -110 -52
-192 -140 -229 -247 -10 -29 -22 -51 -27 -50 -35 7 -163 69 -163 80 0 7 11 38
25 69 14 31 25 68 25 81 0 16 -25 57 -66 109 l-65 84 41 50 c23 28 44 50 46
50 2 0 44 -25 92 -55 49 -30 100 -55 114 -55 13 0 58 17 99 38 41 20 88 43
106 50 35 14 47 41 57 127 4 28 9 67 12 87 l6 37 61 3 c34 2 65 1 68 -2 4 -3
17 -47 28 -98z m48 -485 c137 -51 219 -204 180 -338 -21 -71 -66 -132 -124
-169 -26 -17 -50 -30 -54 -30 -4 0 -19 31 -34 70 -15 38 -37 78 -49 87 -12 10
-84 45 -159 78 -151 66 -153 68 -122 141 26 62 73 111 137 143 51 26 73 31
127 30 36 0 80 -6 98 -12z m-704 -264 c260 -113 473 -207 475 -208 1 -1 -45
-110 -103 -242 -58 -132 -105 -249 -105 -260 0 -12 8 -30 18 -41 9 -11 123
-66 252 -123 129 -56 236 -103 238 -105 2 -1 -27 -72 -64 -158 l-68 -156 -135
0 c-113 0 -141 -3 -163 -18 -45 -30 -332 -342 -345 -375 -8 -23 -12 -139 -12
-395 -1 -341 -2 -363 -18 -358 -10 3 -207 89 -438 190 l-420 185 -3 669 -2
668 191 435 c105 239 197 449 204 467 8 17 17 32 20 32 4 0 219 -93 478 -207z
m661 -592 c42 -107 75 -196 72 -198 -3 -3 -276 114 -285 123 -2 2 25 69 60
149 38 88 66 140 70 133 4 -8 42 -101 83 -207z m798 -898 c-22 -27 -62 -69
-89 -96 l-49 -47 -537 2 -537 3 86 93 86 92 540 0 540 0 -40 -47z m138 -614
l0 -532 -80 -81 -80 -81 0 138 c0 133 -1 139 -25 162 -30 31 -77 33 -105 5
-19 -19 -20 -33 -20 -220 0 -152 -3 -202 -13 -205 -7 -3 -137 -4 -290 -3
l-277 3 25 37 c45 67 37 90 -68 195 -115 115 -124 116 -231 42 l-74 -52 -39
15 c-38 16 -38 17 -54 99 -22 120 -36 139 -95 139 l-24 0 0 330 0 330 570 0
570 0 0 -200 c0 -187 1 -201 20 -220 30 -30 83 -27 109 6 20 25 21 39 21 245
l0 217 76 81 c42 45 78 81 80 81 2 0 4 -239 4 -531z m-1469 -564 c14 -87 34
-119 87 -136 20 -6 58 -22 84 -35 26 -13 56 -24 66 -24 10 0 50 22 89 49 l70
49 31 -31 31 -31 -44 -62 c-61 -87 -62 -94 -26 -170 17 -37 31 -73 31 -81 0
-8 12 -27 28 -42 21 -22 43 -30 105 -40 l77 -12 0 -44 c0 -39 -3 -44 -27 -49
-16 -3 -53 -10 -84 -16 -64 -12 -81 -27 -99 -85 -7 -22 -21 -57 -31 -77 -29
-57 -24 -85 28 -161 l47 -68 -30 -29 -29 -30 -73 50 c-41 28 -80 50 -88 50 -9
0 -39 -11 -67 -24 -29 -13 -68 -28 -88 -35 -53 -17 -66 -38 -81 -126 l-13 -80
-42 -3 c-47 -3 -45 -7 -64 98 -14 75 -27 95 -78 111 -20 6 -57 22 -83 35 -26
13 -58 24 -71 24 -13 0 -52 -20 -87 -45 -35 -25 -68 -45 -74 -45 -12 0 -56 41
-56 52 0 5 20 39 45 76 25 37 45 77 45 90 0 12 -11 44 -24 70 -13 26 -29 64
-35 84 -17 51 -32 60 -125 78 l-81 16 -3 42 c-3 46 -10 42 102 62 68 11 91 28
107 79 6 20 22 57 35 83 13 26 24 56 24 66 0 11 -22 52 -50 93 l-50 74 29 29
29 29 77 -52 c85 -56 83 -56 172 -15 28 13 59 24 68 24 9 0 29 12 44 28 21 21
30 44 39 105 l13 77 44 0 44 0 12 -75z m-1171 -646 l0 -312 -93 6 c-114 6
-171 30 -227 95 -61 68 -70 114 -70 334 l0 188 195 0 195 0 0 -311z"/>
<path d="M3303 1166 c-108 -35 -187 -108 -224 -205 -17 -46 -20 -72 -17 -141
5 -98 25 -145 91 -217 159 -173 449 -128 554 86 24 49 28 68 28 146 0 71 -5
100 -22 137 -30 66 -102 140 -169 172 -68 34 -176 43 -241 22z m201 -173 c154
-109 83 -343 -104 -343 -112 0 -190 79 -190 192 0 151 170 238 294 151z"/>
<path d="M719 4631 c-16 -16 -29 -40 -29 -52 0 -27 282 -317 317 -325 12 -3
31 -3 42 1 27 8 54 60 47 89 -8 34 -298 316 -325 316 -12 0 -36 -13 -52 -29z"/>
<path d="M70 3040 c-13 -13 -20 -33 -20 -59 0 -67 13 -71 248 -71 124 0 211 4
223 11 43 23 42 106 -1 129 -11 6 -109 10 -224 10 -193 0 -207 -1 -226 -20z"/>
<path d="M994 1701 c-61 -44 -274 -267 -275 -288 -4 -53 29 -93 74 -93 26 0
53 23 174 142 79 79 146 153 150 165 9 37 -5 72 -37 88 -39 20 -41 20 -86 -14z"/>
</g>
</svg>
