<?xml version="1.0" encoding="UTF-8"?>
<svg version="1.1" xmlns="http://www.w3.org/2000/svg" width="400" height="400" fill="#ffffff">
<path d="M0 0 C0.90516357 -0.0033284 1.81032715 -0.0066568 2.74291992 -0.01008606 C4.65233863 -0.01512478 6.56176606 -0.01749534 8.47119141 -0.01733398 C11.33902199 -0.01950403 14.20645685 -0.03764719 17.07421875 -0.05664062 C32.67194047 -0.10722829 47.1837468 1.1005211 62.25 5.48046875 C63.28640625 5.76341797 64.3228125 6.04636719 65.390625 6.33789062 C72.17068327 8.26346133 78.1662065 10.86345711 84.375 14.16796875 C85.79354412 14.86231545 87.21528357 15.55018457 88.640625 16.23046875 C89.30320312 16.55273438 89.96578125 16.875 90.6484375 17.20703125 C91.97879795 17.85380728 93.312215 18.49432954 94.6484375 19.12890625 C99.12155514 21.32161098 102.76604696 23.70938876 106.375 27.16796875 C106.82439354 32.22364607 104.04819173 35.27146598 101.0546875 39.03125 C97.26679303 43.84980413 94.03100903 49.08300726 90.8125 54.29296875 C89.23401167 56.84789377 87.58394544 59.30553276 85.8125 61.73046875 C83.38052137 65.07729827 81.38419224 68.55142272 79.375 72.16796875 C75.29038096 79.05864186 71.16391027 85.95694491 66.25 92.29296875 C64.22200803 94.92402149 62.55767393 97.54684952 61 100.48046875 C59.09222038 104.05144087 56.92327014 107.23701487 54.5 110.48046875 C51.68452732 114.26079443 49.19862591 118.06714038 46.875 122.16796875 C44.01672415 127.20243189 40.81110076 131.80270486 37.35546875 136.44140625 C34.13591713 140.87384615 31.26054705 145.5138606 28.375 150.16796875 C27.58371905 151.43904228 26.79208168 152.70989404 26 153.98046875 C25.41992188 154.91439453 25.41992188 154.91439453 24.828125 155.8671875 C23.62300568 157.77529309 22.40236127 159.67075661 21.171875 161.5625 C20.77403809 162.17569092 20.37620117 162.78888184 19.96630859 163.4206543 C19.17503135 164.6387003 18.38121741 165.85510342 17.58447266 167.06958008 C15.25204889 170.66349944 13.21990496 174.30189403 11.375 178.16796875 C10.715 178.16796875 10.055 178.16796875 9.375 178.16796875 C9.12878906 178.86019531 8.88257813 179.55242187 8.62890625 180.265625 C7.18077 183.61754162 5.31751709 186.57076732 3.3125 189.60546875 C2.50245537 190.84755922 1.692564 192.08974965 0.8828125 193.33203125 C0.46805664 193.9652832 0.05330078 194.59853516 -0.37402344 195.25097656 C-1.98670492 197.72224412 -3.57789138 200.20693402 -5.16821289 202.69262695 C-10.60823908 211.19216008 -16.16481393 219.58260352 -22.01171875 227.80859375 C-23.65388988 230.21021933 -25.13652772 232.66852907 -26.625 235.16796875 C-28.03483665 237.38108442 -29.45053499 239.58933781 -30.875 241.79296875 C-31.6851094 243.04934148 -32.49500327 244.30585322 -33.3046875 245.5625 C-33.70139648 246.17818848 -34.09810547 246.79387695 -34.50683594 247.42822266 C-36.01390421 249.77306294 -37.50749016 252.1263409 -39 254.48046875 C-41.03522038 257.68605836 -43.0846593 260.88169687 -45.15234375 264.06640625 C-45.8323645 265.11393066 -45.8323645 265.11393066 -46.52612305 266.18261719 C-47.46565834 267.62905623 -48.40592335 269.07502154 -49.34692383 270.52050781 C-51.77242201 274.25872184 -54.15904003 278.01494736 -56.484375 281.81640625 C-56.93901123 282.55737549 -57.39364746 283.29834473 -57.86206055 284.06176758 C-58.73180586 285.48485611 -59.59547185 286.91168173 -60.45239258 288.3425293 C-61.45697996 289.98459918 -62.53416549 291.58188257 -63.625 293.16796875 C-64.285 293.16796875 -64.945 293.16796875 -65.625 293.16796875 C-65.99238281 294.47121094 -65.99238281 294.47121094 -66.3671875 295.80078125 C-67.71887833 299.41928278 -69.42624099 301.96961005 -71.75 305.04296875 C-72.47445312 306.00976562 -73.19890625 306.9765625 -73.9453125 307.97265625 C-74.49960938 308.69710938 -75.05390625 309.4215625 -75.625 310.16796875 C-87.49273507 305.62033245 -96.62872513 296.76349859 -104.625 287.16796875 C-106.80133714 284.93435958 -109.00614939 282.74604802 -111.28515625 280.6171875 C-115.88623262 276.21835624 -119.26969069 271.55954685 -122.625 266.16796875 C-123.24246094 265.22179687 -123.85992187 264.275625 -124.49609375 263.30078125 C-130.05422378 254.61146295 -134.50611065 245.61090397 -138.625 236.16796875 C-138.91149414 235.52520996 -139.19798828 234.88245117 -139.49316406 234.22021484 C-144.71820765 222.31735582 -146.84140749 209.99117495 -148.625 197.16796875 C-148.728125 196.4500415 -148.83125 195.73211426 -148.9375 194.99243164 C-153.68314607 158.05462669 -146.80068712 119.07331786 -128.625 86.54296875 C-128.12484375 85.64578125 -127.6246875 84.74859375 -127.109375 83.82421875 C-126.61953125 82.94765625 -126.1296875 82.07109375 -125.625 81.16796875 C-125.15578125 80.29140625 -124.6865625 79.41484375 -124.203125 78.51171875 C-123.76484375 77.69703125 -123.3265625 76.88234375 -122.875 76.04296875 C-122.29492188 74.95628906 -122.29492188 74.95628906 -121.703125 73.84765625 C-120.625 72.16796875 -120.625 72.16796875 -118.625 71.16796875 C-117.95210937 69.80285156 -117.95210937 69.80285156 -117.265625 68.41015625 C-115.61356047 65.14536207 -113.86703406 62.95055752 -111.375 60.29296875 C-108.63123624 57.33340335 -105.92242793 54.37101644 -103.3125 51.29296875 C-100.18473589 47.71211732 -96.90052461 44.30157939 -93.5625 40.91796875 C-93.0677417 40.41023926 -92.5729834 39.90250977 -92.06323242 39.37939453 C-88.83741137 36.14555569 -85.49444583 33.63487906 -81.625 31.16796875 C-81.109375 30.65234375 -80.59375 30.13671875 -80.0625 29.60546875 C-78.13451547 27.67748422 -75.98166184 26.55122679 -73.625 25.16796875 C-72.20487301 24.21477068 -70.78856672 23.25586873 -69.375 22.29296875 C-56.42972763 13.68393958 -42.45751401 8.0819231 -27.5625 3.79296875 C-26.69463867 3.54232666 -25.82677734 3.29168457 -24.93261719 3.03344727 C-16.59636242 0.72255765 -8.61556246 0.01129163 0 0 Z " transform="translate(184.625,31.83203125)"/>
<path d="M0 0 C6.11624404 3.05812202 9.67697489 7.81236986 14 13 C14.7734375 13.75539063 15.546875 14.51078125 16.34375 15.2890625 C19.14710105 18.1501296 21.59355759 21.18352343 24 24.375 C24.43860352 24.9529834 24.87720703 25.5309668 25.32910156 26.12646484 C26.55645781 27.74816526 27.77842997 29.37393658 29 31 C29.51046875 31.66515625 30.0209375 32.3303125 30.546875 33.015625 C34.28183204 38.01173636 37.11889164 43.48125722 40 49 C40.3084082 49.57363281 40.61681641 50.14726563 40.93457031 50.73828125 C50.18313071 67.96291816 55.7285016 85.40850668 58.65625 104.73388672 C58.93878919 106.59647816 59.25741909 108.45355981 59.5859375 110.30859375 C61.47005681 127.10569517 60.61163834 144.50328832 57 161 C56.85014648 161.70012207 56.70029297 162.40024414 56.54589844 163.12158203 C51.09840975 188.00538653 39.95519294 209.2700419 24 229 C23.26910156 229.93392578 23.26910156 229.93392578 22.5234375 230.88671875 C21.39805184 232.29838673 20.20581284 233.65637997 19 235 C18.34 235 17.68 235 17 235 C16.74863281 235.58910156 16.49726563 236.17820312 16.23828125 236.78515625 C14.84544599 239.27644202 13.3791428 240.62300414 11.1875 242.4375 C8.71565552 244.51905325 6.35288472 246.59655844 4.125 248.9375 C2 251 2 251 0 251 C0 168.17 0 85.34 0 0 Z " transform="translate(312,76)"/>
<path d="M0 0 C3.28669718 3.0812786 3.970253 6.17603915 4.13142776 10.64041138 C4.13956033 12.19791868 4.14211565 13.75546065 4.14044189 15.31298828 C4.14341302 16.17098085 4.14638414 17.02897343 4.1494453 17.91296577 C4.15814305 20.7987578 4.15964144 23.68450839 4.16113281 26.5703125 C4.16576011 28.63482757 4.17078465 30.69934177 4.17617798 32.76385498 C4.18930978 38.37940183 4.19574809 43.99493672 4.20018864 49.61049652 C4.20311721 53.11567853 4.20722154 56.62085724 4.21169281 60.1260376 C4.22536782 71.08400139 4.2350353 82.04195769 4.2388947 92.99992943 C4.24338006 105.66668995 4.2609501 118.3333428 4.2898953 131.00007057 C4.3114737 140.78099097 4.32159687 150.56188098 4.32293582 160.34282494 C4.32398632 166.18971262 4.32994629 172.0364991 4.34775543 177.88336182 C4.36417049 183.37937997 4.36642372 188.87522012 4.35761642 194.37125397 C4.3568426 196.39214808 4.36123388 198.41305151 4.37107468 200.43392181 C4.38369015 203.18516712 4.37797454 205.93577191 4.36749268 208.68701172 C4.37957728 209.89648311 4.37957728 209.89648311 4.39190602 211.13038826 C4.34383345 216.49681597 4.34383345 216.49681597 2.68406296 218.92581177 C-0.04784937 220.66837612 -3.0043187 221.78141778 -6 223 C-6.886875 223.45375 -7.77375 223.9075 -8.6875 224.375 C-20.94692279 230.38905646 -33.76120677 234.91183458 -47 238.1875 C-48.00289063 238.44724609 -49.00578125 238.70699219 -50.0390625 238.97460938 C-62.23939878 242.02469344 -74.22047251 242.18648728 -86.72338867 242.18530273 C-89.29688126 242.18748675 -91.86994231 242.20569622 -94.44335938 242.22460938 C-108.6608706 242.27578074 -121.85196715 240.68226074 -135.5625 236.75 C-136.64007568 236.44570068 -137.71765137 236.14140137 -138.82788086 235.82788086 C-146.60821607 233.56407286 -153.85937768 230.87552663 -161 227 C-159.72712429 223.56142581 -158.25626986 220.6490066 -156.1875 217.625 C-155.65769531 216.84640625 -155.12789062 216.0678125 -154.58203125 215.265625 C-153.19987198 213.28623641 -151.79515936 211.32716953 -150.375 209.375 C-147.97250222 206.04846461 -145.99273782 202.58692807 -144 199 C-141.56736731 194.83285701 -138.93171808 190.82133777 -136.25 186.8125 C-135.8060791 186.14686035 -135.3621582 185.4812207 -134.90478516 184.79541016 C-132.44461771 181.1180604 -129.94290956 177.47835696 -127.375 173.875 C-124.00411313 169.11144625 -121.00228491 164.14923181 -117.97265625 159.1640625 C-115.68410988 155.49332476 -113.22386905 151.97876971 -110.71484375 148.45703125 C-107.65429388 144.07186981 -104.84161619 139.52882581 -102 135 C-98.64439951 129.65201172 -95.27790444 124.33860027 -91.625 119.1875 C-86.30819822 111.6793137 -81.39007142 103.89237731 -76.5625 96.0625 C-72.97285222 90.28464227 -69.13323579 84.66496706 -65.34814453 79.01416016 C-62.72102111 75.08917496 -60.1040654 71.15740512 -57.48535156 67.22680664 C-55.70843955 64.56037503 -53.92973492 61.89526805 -52.14453125 59.234375 C-51.62246094 58.45578125 -51.10039062 57.6771875 -50.5625 56.875 C-50.13066406 56.23304688 -49.69882813 55.59109375 -49.25390625 54.9296875 C-47.77528966 52.65418409 -46.39155643 50.32972355 -45 48 C-43.84144313 46.11997817 -42.67457906 44.24505351 -41.5 42.375 C-40.9121875 41.43398437 -40.324375 40.49296875 -39.71875 39.5234375 C-38.26430593 37.38804916 -36.83381552 35.78652515 -35 34 C-34.566875 33.13375 -34.13375 32.2675 -33.6875 31.375 C-31.9413859 27.8827718 -29.93148978 24.78428523 -27.73828125 21.5625 C-26.48863899 19.72033073 -25.25919738 17.86439838 -24.04296875 16 C-11.71169264 -2.86237264 -11.71169264 -2.86237264 0 0 Z " transform="translate(287,126)"/>
</svg>
