<?xml version="1.0" standalone="no"?>
<!DOCTYPE svg PUBLIC "-//W3C//DTD SVG 20010904//EN"
 "http://www.w3.org/TR/2001/REC-SVG-20010904/DTD/svg10.dtd">
<svg version="1.0" xmlns="http://www.w3.org/2000/svg"
 width="512.000000pt" height="512.000000pt" viewBox="0 0 512.000000 512.000000"
 preserveAspectRatio="xMidYMid meet">

<g transform="translate(0.000000,512.000000) scale(0.100000,-0.100000)"
fill="#000000" stroke="none">
<path d="M95 4666 c-41 -18 -83 -69 -90 -109 -3 -18 -4 -820 -3 -1784 3 -1751
3 -1752 24 -1779 11 -15 33 -37 48 -48 27 -21 35 -21 1077 -24 l1049 -2 0
-200 0 -200 -185 0 c-184 0 -186 0 -210 -25 -33 -32 -33 -78 0 -110 l24 -25
731 0 731 0 24 25 c33 32 33 78 0 110 -24 25 -26 25 -210 25 l-185 0 0 200 0
200 1049 2 c1042 3 1050 3 1077 24 15 11 37 33 48 48 l21 27 0 1779 0 1779
-21 27 c-11 15 -33 37 -48 48 l-27 21 -2447 2 c-2019 2 -2452 0 -2477 -11z
m4865 -1506 l0 -1360 -2240 0 -2240 0 0 840 0 840 2080 0 2080 0 0 -455 0
-456 25 -24 c32 -33 78 -33 110 0 l25 24 0 831 0 831 -25 24 -24 25 -2191 0
-2191 0 -24 -25 -25 -24 0 -1216 0 -1215 -80 0 -80 0 0 1360 0 1360 2400 0
2400 0 0 -1360z m-985 775 c16 -15 25 -36 25 -55 0 -19 -9 -40 -25 -55 -23
-24 -31 -25 -135 -25 -104 0 -112 1 -135 25 -16 15 -25 36 -25 55 0 19 9 40
25 55 23 24 31 25 135 25 104 0 112 -1 135 -25z m480 0 c16 -15 25 -36 25 -55
0 -19 -9 -40 -25 -55 -23 -24 -31 -25 -135 -25 -104 0 -112 1 -135 25 -16 15
-25 36 -25 55 0 19 9 40 25 55 23 24 31 25 135 25 104 0 112 -1 135 -25z
m-1811 -2494 c26 -27 31 -39 31 -81 0 -43 -5 -54 -33 -82 -28 -28 -39 -33 -82
-33 -43 0 -54 5 -82 33 -28 28 -33 39 -33 81 0 52 25 92 70 112 37 16 96 3
129 -30z m116 -721 l0 -200 -200 0 -200 0 0 200 0 200 200 0 200 0 0 -200z"/>
<path d="M2587 3102 c-34 -32 -134 -125 -222 -206 -228 -211 -245 -230 -245
-263 0 -15 6 -35 13 -43 20 -25 460 -434 487 -453 33 -23 62 -21 94 4 20 16
26 29 26 59 0 38 -7 45 -211 237 l-211 198 29 24 c87 75 402 375 407 388 21
53 -19 113 -74 113 -25 0 -45 -13 -93 -58z"/>
<path d="M3865 3135 c-30 -29 -33 -74 -7 -103 9 -12 107 -105 217 -207 110
-102 201 -189 202 -193 1 -4 -77 -79 -173 -167 -243 -223 -247 -228 -246 -267
1 -38 40 -78 76 -78 13 0 36 10 52 22 54 42 474 440 485 459 18 34 0 76 -50
121 -26 24 -143 132 -259 241 -232 216 -246 224 -297 172z"/>
<path d="M3229 3111 c-16 -13 -23 -29 -23 -55 0 -32 -3 -37 -35 -47 -20 -6
-53 -22 -74 -35 l-38 -25 -26 21 c-32 25 -64 26 -94 2 -29 -24 -30 -74 -2
-105 l21 -22 -25 -77 c-25 -73 -28 -78 -60 -84 -86 -16 -82 -134 5 -134 36 -1
38 -2 73 -78 37 -76 37 -77 18 -101 -57 -72 32 -148 105 -90 27 21 28 21 66 4
21 -9 53 -20 71 -24 28 -6 35 -12 42 -44 22 -91 137 -83 137 9 0 24 5 36 18
40 9 2 43 18 75 34 l58 30 29 -21 c71 -53 150 42 90 106 l-21 22 25 74 c25 76
32 84 77 93 31 7 54 53 44 85 -8 26 -55 52 -81 45 -15 -3 -26 10 -55 73 -37
77 -37 78 -18 102 57 72 -32 148 -105 90 -27 -21 -28 -21 -66 -4 -21 9 -53 20
-71 24 -28 6 -36 13 -47 46 -21 65 -67 84 -113 46z m189 -294 c119 -78 127
-258 17 -343 -54 -41 -123 -56 -184 -40 -108 28 -166 109 -159 221 5 79 41
137 108 173 63 33 159 29 218 -11z"/>
<path d="M685 3015 c-16 -15 -25 -36 -25 -55 0 -19 9 -40 25 -55 l24 -25 351
0 351 0 24 25 c16 15 25 36 25 55 0 19 -9 40 -25 55 l-24 25 -351 0 -351 0
-24 -25z"/>
<path d="M685 2695 c-16 -15 -25 -36 -25 -55 0 -19 9 -40 25 -55 l24 -25 551
0 551 0 24 25 c33 32 33 78 0 110 l-24 25 -551 0 -551 0 -24 -25z"/>
<path d="M685 2375 c-16 -15 -25 -36 -25 -55 0 -19 9 -40 25 -55 l24 -25 631
0 631 0 24 25 c16 15 25 36 25 55 0 19 -9 40 -25 55 l-24 25 -631 0 -631 0
-24 -25z"/>
<path d="M4665 2335 c-24 -23 -25 -31 -25 -135 0 -104 1 -112 25 -135 15 -16
36 -25 55 -25 19 0 40 9 55 25 24 23 25 31 25 135 0 104 -1 112 -25 135 -15
16 -36 25 -55 25 -19 0 -40 -9 -55 -25z"/>
</g>
</svg>
